<svg width="8" height="8" viewBox="0 0 8 8" fill="none" xmlns="http://www.w3.org/2000/svg">
<g clip-path="url(#clip0_93_104)">
<path fill-rule="evenodd" clip-rule="evenodd" d="M0.175156 1.88563C0.287453 1.77347 0.439678 1.71047 0.598392 1.71047C0.757106 1.71047 0.909331 1.77347 1.02163 1.88563L3.99227 4.85627L6.96291 1.88563C7.01774 1.82679 7.08386 1.77959 7.15732 1.74686C7.23079 1.71412 7.3101 1.69652 7.39052 1.6951C7.47093 1.69368 7.55081 1.70847 7.62539 1.7386C7.69996 1.76872 7.76771 1.81355 7.82458 1.87043C7.88145 1.9273 7.92629 1.99504 7.95641 2.06962C7.98653 2.1442 8.00133 2.22407 7.99991 2.30449C7.99849 2.38491 7.98089 2.46422 7.94815 2.53768C7.91542 2.61115 7.86822 2.67727 7.80938 2.7321L4.4155 6.12598C4.3032 6.23813 4.15098 6.30113 3.99227 6.30113C3.83355 6.30113 3.68133 6.23813 3.56903 6.12598L0.175156 2.7321C0.0629978 2.6198 0 2.46758 0 2.30887C0 2.15015 0.0629978 1.99793 0.175156 1.88563Z" fill="currentColor"/>
</g>
<defs>
<clipPath id="clip0_93_104">
<rect width="8" height="8" fill="white"/>
</clipPath>
</defs>
</svg>
