<svg width="8" height="8" viewBox="0 0 8 8" fill="none" xmlns="http://www.w3.org/2000/svg">
<g clip-path="url(#clip0_221_504)">
<path fill-rule="evenodd" clip-rule="evenodd" d="M0.175156 2.19062C0.287453 2.07846 0.439678 2.01547 0.598392 2.01547C0.757106 2.01547 0.909331 2.07846 1.02163 2.19062L3.99227 5.16126L6.96291 2.19062C7.01774 2.13178 7.08386 2.08458 7.15732 2.05185C7.23079 2.01911 7.3101 2.00151 7.39052 2.00009C7.47093 1.99867 7.55081 2.01347 7.62539 2.04359C7.69996 2.07371 7.76771 2.11855 7.82458 2.17542C7.88145 2.23229 7.92629 2.30004 7.95641 2.37461C7.98653 2.44919 8.00133 2.52907 7.99991 2.60948C7.99849 2.6899 7.98089 2.76921 7.94815 2.84268C7.91542 2.91614 7.86822 2.98226 7.80938 3.03709L4.4155 6.43097C4.3032 6.54313 4.15098 6.60613 3.99227 6.60613C3.83355 6.60613 3.68133 6.54313 3.56903 6.43097L0.175156 3.03709C0.0629978 2.9248 0 2.77257 0 2.61386C0 2.45514 0.0629978 2.30292 0.175156 2.19062Z" fill="currentColor"/>
</g>
<defs>
<clipPath id="clip0_221_504">
<rect width="8" height="8" fill="white"/>
</clipPath>
</defs>
</svg>
