<svg xmlns="http://www.w3.org/2000/svg" width="8" height="8" fill="none" viewBox="0 0 8 8"><g clip-path="url(#clip0_221_494)"><path fill="currentColor" fill-rule="evenodd" d="M0.175156 1.88569C0.287453 1.77353 0.439678 1.71053 0.598392 1.71053C0.757106 1.71053 0.909331 1.77353 1.02163 1.88569L3.99227 4.85633L6.96291 1.88569C7.01774 1.82685 7.08386 1.77965 7.15732 1.74692C7.23079 1.71418 7.3101 1.69658 7.39052 1.69516C7.47093 1.69374 7.55081 1.70854 7.62539 1.73866C7.69996 1.76878 7.76771 1.81362 7.82458 1.87049C7.88145 1.92736 7.92629 1.9951 7.95641 2.06968C7.98653 2.14426 8.00133 2.22414 7.99991 2.30455C7.99849 2.38497 7.98089 2.46428 7.94815 2.53774C7.91542 2.61121 7.86822 2.67733 7.80938 2.73216L4.4155 6.12604C4.3032 6.2382 4.15098 6.30119 3.99227 6.30119C3.83355 6.30119 3.68133 6.2382 3.56903 6.12604L0.175156 2.73216C0.0629978 2.61987 0 2.46764 0 2.30893C0 2.15021 0.0629978 1.99799 0.175156 1.88569Z" clip-rule="evenodd"/></g><defs><clipPath id="clip0_221_494"><rect width="8" height="8" fill="#fff"/></clipPath></defs></svg>