<svg width="16" height="16" viewBox="0 0 16 16" fill="none" xmlns="http://www.w3.org/2000/svg">
<path fill-rule="evenodd" clip-rule="evenodd" d="M13.3632 3.32241C13.426 3.37012 13.4789 3.42974 13.5186 3.49788C13.5584 3.56601 13.5843 3.64132 13.5949 3.71949C13.6056 3.79766 13.6007 3.87716 13.5805 3.95344C13.5604 4.02971 13.5254 4.10127 13.4776 4.16401L7.07761 12.564C7.0257 12.6321 6.95983 12.6882 6.88443 12.7287C6.80902 12.7692 6.72583 12.7931 6.64044 12.7987C6.55504 12.8044 6.46942 12.7918 6.38931 12.7616C6.30921 12.7315 6.23648 12.6846 6.17601 12.624L2.57601 9.02401C2.47003 8.91027 2.41233 8.75984 2.41507 8.6044C2.41781 8.44896 2.48078 8.30065 2.59071 8.19072C2.70064 8.08079 2.84895 8.01782 3.00439 8.01507C3.15983 8.01233 3.31027 8.07003 3.42401 8.17601L6.53921 11.2904L12.5232 3.43681C12.6195 3.31038 12.7621 3.22732 12.9195 3.20587C13.077 3.18442 13.2366 3.22634 13.3632 3.32241Z" fill="currentColor"/>
</svg>
