<svg width="16" height="16" viewBox="0 0 16 16" fill="none" xmlns="http://www.w3.org/2000/svg">
<path fill-rule="evenodd" clip-rule="evenodd" d="M13.5798 3.12712C13.6452 3.17682 13.7002 3.23893 13.7417 3.3099C13.7831 3.38088 13.8101 3.45933 13.8212 3.54076C13.8322 3.62219 13.8271 3.705 13.8062 3.78446C13.7852 3.86392 13.7488 3.93846 13.6989 4.00382L7.03205 12.7541C6.97798 12.825 6.90936 12.8835 6.83081 12.9256C6.75227 12.9678 6.6656 12.9927 6.57665 12.9986C6.48769 13.0045 6.3985 12.9914 6.31505 12.96C6.23161 12.9286 6.15585 12.8797 6.09286 12.8166L2.34274 9.06648C2.23233 8.948 2.17223 8.79129 2.17509 8.62937C2.17794 8.46744 2.24354 8.31295 2.35805 8.19844C2.47257 8.08392 2.62706 8.01833 2.78898 8.01547C2.9509 8.01261 3.10762 8.07272 3.2261 8.18312L6.4712 11.4274L12.7047 3.2463C12.8051 3.11458 12.9535 3.02806 13.1176 3.00572C13.2817 2.98338 13.4479 3.02704 13.5798 3.12712Z" fill="currentColor"/>
</svg>
