<svg width="14" height="14" viewBox="0 0 14 14" fill="none" xmlns="http://www.w3.org/2000/svg">
<path fill-rule="evenodd" clip-rule="evenodd" d="M2.16202 2.17633C2.2659 2.07258 2.40672 2.01431 2.55353 2.01431C2.70035 2.01431 2.84116 2.07258 2.94504 2.17633L6.98569 6.21698L11.0263 2.17633C11.0771 2.1219 11.1382 2.07824 11.2062 2.04796C11.2741 2.01768 11.3475 2.0014 11.4219 2.00009C11.4963 1.99877 11.5702 2.01246 11.6392 2.04032C11.7081 2.06819 11.7708 2.10966 11.8234 2.16227C11.876 2.21488 11.9175 2.27754 11.9454 2.34653C11.9732 2.41551 11.9869 2.4894 11.9856 2.56379C11.9843 2.63818 11.968 2.71154 11.9377 2.7795C11.9075 2.84746 11.8638 2.90863 11.8094 2.95935L7.76871 7L11.8094 11.0407C11.8638 11.0914 11.9075 11.1525 11.9377 11.2205C11.968 11.2885 11.9843 11.3618 11.9856 11.4362C11.9869 11.5106 11.9732 11.5845 11.9454 11.6535C11.9175 11.7225 11.876 11.7851 11.8234 11.8377C11.7708 11.8903 11.7081 11.9318 11.6392 11.9597C11.5702 11.9875 11.4963 12.0012 11.4219 11.9999C11.3475 11.9986 11.2741 11.9823 11.2062 11.952C11.1382 11.9218 11.0771 11.8781 11.0263 11.8237L6.98569 7.78302L2.94504 11.8237C2.84002 11.9215 2.70111 11.9748 2.55758 11.9723C2.41405 11.9697 2.27711 11.9116 2.1756 11.8101C2.07409 11.7086 2.01595 11.5716 2.01342 11.4281C2.01089 11.2846 2.06416 11.1457 2.16202 11.0407L6.20268 7L2.16202 2.95935C2.05828 2.85547 2 2.71466 2 2.56784C2 2.42102 2.05828 2.28021 2.16202 2.17633Z" fill="currentColor"/>
</svg>
