<svg width="16" height="16" viewBox="0 0 16 16" fill="none" xmlns="http://www.w3.org/2000/svg">
<path fill-rule="evenodd" clip-rule="evenodd" d="M2.44634 2.45278C2.5658 2.33347 2.72773 2.26645 2.89657 2.26645C3.06541 2.26645 3.22735 2.33347 3.34681 2.45278L7.99356 7.09953L12.6403 2.45278C12.6986 2.39019 12.769 2.33998 12.8471 2.30516C12.9253 2.27033 13.0096 2.25161 13.0952 2.2501C13.1807 2.24859 13.2657 2.26433 13.345 2.29637C13.4244 2.32841 13.4964 2.37611 13.5569 2.43661C13.6174 2.49711 13.6651 2.56918 13.6972 2.64851C13.7292 2.72784 13.745 2.81282 13.7435 2.89836C13.7419 2.98391 13.7232 3.06828 13.6884 3.14643C13.6536 3.22458 13.6034 3.29492 13.5408 3.35325L8.89402 8L13.5408 12.6468C13.6034 12.7051 13.6536 12.7754 13.6884 12.8536C13.7232 12.9317 13.7419 13.0161 13.7435 13.1016C13.745 13.1872 13.7292 13.2722 13.6972 13.3515C13.6651 13.4308 13.6174 13.5029 13.5569 13.5634C13.4964 13.6239 13.4244 13.6716 13.345 13.7036C13.2657 13.7357 13.1807 13.7514 13.0952 13.7499C13.0096 13.7484 12.9253 13.7297 12.8471 13.6948C12.769 13.66 12.6986 13.6098 12.6403 13.5472L7.99356 8.90047L3.34681 13.5472C3.22603 13.6598 3.06628 13.721 2.90123 13.7181C2.73617 13.7152 2.57868 13.6483 2.46195 13.5316C2.34522 13.4149 2.27835 13.2574 2.27544 13.0923C2.27253 12.9273 2.3338 12.7675 2.44634 12.6468L7.09309 8L2.44634 3.35325C2.32703 3.23379 2.26001 3.07185 2.26001 2.90302C2.26001 2.73418 2.32703 2.57224 2.44634 2.45278Z" fill="currentColor"/>
</svg>
