<svg width="20" height="20" viewBox="0 0 20 20" fill="none" xmlns="http://www.w3.org/2000/svg">
<path fill-rule="evenodd" clip-rule="evenodd" d="M4.55839 4.5583C4.67558 4.44126 4.83443 4.37552 5.00006 4.37552C5.16569 4.37552 5.32454 4.44126 5.44173 4.5583L10.0001 9.11663L14.5584 4.5583C14.6156 4.49689 14.6846 4.44764 14.7613 4.41348C14.8379 4.37932 14.9207 4.36095 15.0046 4.35947C15.0885 4.35799 15.1719 4.37343 15.2497 4.40486C15.3275 4.4363 15.3982 4.48308 15.4576 4.54243C15.5169 4.60178 15.5637 4.67248 15.5952 4.7503C15.6266 4.82812 15.642 4.91148 15.6406 4.9954C15.6391 5.07932 15.6207 5.16208 15.5865 5.23875C15.5524 5.31541 15.5031 5.38441 15.4417 5.44163L10.8834 9.99997L15.4417 14.5583C15.5031 14.6155 15.5524 14.6845 15.5865 14.7612C15.6207 14.8378 15.6391 14.9206 15.6406 15.0045C15.642 15.0884 15.6266 15.1718 15.5952 15.2496C15.5637 15.3275 15.5169 15.3981 15.4576 15.4575C15.3982 15.5168 15.3275 15.5636 15.2497 15.5951C15.1719 15.6265 15.0885 15.6419 15.0046 15.6405C14.9207 15.639 14.8379 15.6206 14.7613 15.5864C14.6846 15.5523 14.6156 15.503 14.5584 15.4416L10.0001 10.8833L5.44173 15.4416C5.32325 15.552 5.16654 15.6121 5.00462 15.6093C4.84271 15.6064 4.68822 15.5408 4.57371 15.4263C4.4592 15.3118 4.3936 15.1573 4.39075 14.9954C4.38789 14.8335 4.44799 14.6768 4.55839 14.5583L9.11673 9.99997L4.55839 5.44163C4.44135 5.32444 4.37561 5.16559 4.37561 4.99997C4.37561 4.83434 4.44135 4.67549 4.55839 4.5583Z" fill="currentColor"/>
</svg>
